<svg xmlns="http://www.w3.org/2000/svg" width="34" height="34" viewBox="0 0 34 34"><defs><style>.a{fill:none;stroke:#f2f2f2;stroke-linecap:round;stroke-linejoin:round;stroke-width:2px;}</style></defs><g transform="translate(-0.5 -0.5)"><path class="a" d="M25.045,17.773A7.273,7.273,0,1,1,17.773,10.5,7.273,7.273,0,0,1,25.045,17.773Z" transform="translate(-0.273 -0.273)"/><path class="a" d="M18,1.5V4.409" transform="translate(-0.5)"/><path class="a" d="M18,31.5v2.909" transform="translate(-0.5 -0.909)"/><path class="a" d="M6.33,6.33,8.4,8.4" transform="translate(-0.146 -0.146)"/><path class="a" d="M27.54,27.54l2.065,2.065" transform="translate(-0.789 -0.789)"/><path class="a" d="M1.5,18H4.409" transform="translate(0 -0.5)"/><path class="a" d="M31.5,18h2.909" transform="translate(-0.909 -0.5)"/><path class="a" d="M6.33,29.605,8.4,27.54" transform="translate(-0.146 -0.789)"/><path class="a" d="M27.54,8.4,29.605,6.33" transform="translate(-0.789 -0.146)"/></g></svg>