<svg width="17" height="17" viewBox="0 0 17 17" fill="none" xmlns="http://www.w3.org/2000/svg">
<g clip-path="url(#clip0)">
<path d="M4.16 16.344C3.52483 16.3371 2.8956 16.2208 2.3 16C1.86539 15.8395 1.47214 15.584 1.149 15.252C0.815876 14.9292 0.559855 14.5354 0.4 14.1C0.179433 13.505 0.0630629 12.8765 0.056 12.242C0.01 11.19 0 10.873 0 8.2C0 5.527 0.011 5.215 0.058 4.159C0.0649225 3.52434 0.180598 2.89557 0.4 2.3C0.561802 1.86564 0.818351 1.47279 1.151 1.15C1.47293 0.817023 1.86562 0.5607 2.3 0.4C2.89541 0.180021 3.52428 0.0643275 4.159 0.058C5.214 0.01 5.531 0 8.2 0C10.869 0 11.188 0.011 12.243 0.058C12.877 0.0651899 13.5051 0.180861 14.1 0.4C14.5347 0.560188 14.9281 0.815787 15.251 1.148C15.5837 1.47114 15.8397 1.86481 16 2.3C16.2206 2.89497 16.3369 3.5235 16.344 4.158C16.392 5.213 16.402 5.529 16.402 8.201C16.402 10.873 16.392 11.188 16.344 12.244C16.3362 12.8778 16.2199 13.5055 16 14.1C15.8336 14.5318 15.5785 14.924 15.2513 15.2513C14.924 15.5785 14.5318 15.8336 14.1 16C13.505 16.2205 12.8765 16.3369 12.242 16.344C11.187 16.392 10.871 16.402 8.199 16.402C5.527 16.402 5.211 16.393 4.157 16.344" fill="#F8F8F8"/>
<path d="M4.16 16.344C3.52483 16.3371 2.8956 16.2208 2.3 16C1.86539 15.8395 1.47214 15.584 1.149 15.252C0.815876 14.9292 0.559855 14.5354 0.4 14.1C0.179433 13.505 0.0630629 12.8765 0.056 12.242C0.01 11.19 0 10.873 0 8.2C0 5.527 0.011 5.215 0.058 4.159C0.0649225 3.52434 0.180598 2.89557 0.4 2.3C0.561802 1.86564 0.818351 1.47279 1.151 1.15C1.47293 0.817023 1.86562 0.5607 2.3 0.4C2.89541 0.180021 3.52428 0.0643275 4.159 0.058C5.214 0.01 5.531 0 8.2 0C10.869 0 11.188 0.011 12.243 0.058C12.877 0.0651899 13.5051 0.180861 14.1 0.4C14.5347 0.560188 14.9281 0.815787 15.251 1.148C15.5837 1.47114 15.8397 1.86481 16 2.3C16.2206 2.89497 16.3369 3.5235 16.344 4.158C16.392 5.213 16.402 5.529 16.402 8.201C16.402 10.873 16.392 11.188 16.344 12.244C16.3362 12.8778 16.2199 13.5055 16 14.1C15.8336 14.5318 15.5785 14.924 15.2513 15.2513C14.924 15.5785 14.5318 15.8336 14.1 16C13.505 16.2205 12.8765 16.3369 12.242 16.344C11.187 16.392 10.871 16.402 8.199 16.402C5.527 16.402 5.211 16.393 4.157 16.344" fill="#F8F8F8"/>
<path d="M6.18799 8.23601C6.18799 7.83431 6.3071 7.44165 6.53027 7.10765C6.75344 6.77365 7.07066 6.51333 7.44177 6.3596C7.81289 6.20588 8.22126 6.16567 8.61523 6.24403C9.00921 6.3224 9.37108 6.51584 9.65512 6.79988C9.93916 7.08392 10.1326 7.44579 10.211 7.83977C10.2893 8.23374 10.2491 8.64211 10.0954 9.01323C9.94168 9.38435 9.68135 9.70156 9.34735 9.92473C9.01335 10.1479 8.62069 10.267 8.21899 10.267C7.68034 10.267 7.16375 10.053 6.78287 9.67213C6.40198 9.29125 6.18799 8.77466 6.18799 8.23601V8.23601ZM5.08798 8.23601C5.08798 8.85487 5.27151 9.45982 5.61533 9.97438C5.95914 10.4889 6.44784 10.89 7.01959 11.1268C7.59134 11.3636 8.22046 11.4256 8.82742 11.3049C9.43439 11.1842 9.99194 10.8861 10.4295 10.4485C10.8671 10.0109 11.1651 9.45342 11.2859 8.84645C11.4066 8.23948 11.3446 7.61034 11.1078 7.03859C10.871 6.46684 10.4699 5.97814 9.95538 5.63432C9.44082 5.2905 8.83584 5.10701 8.21698 5.10701C7.38712 5.10701 6.59126 5.43665 6.00446 6.02345C5.41765 6.61025 5.08798 7.40615 5.08798 8.23601V8.23601ZM10.739 4.98299C10.739 5.12752 10.7818 5.26883 10.8621 5.38902C10.9424 5.50921 11.0565 5.60289 11.19 5.65825C11.3235 5.71361 11.4705 5.72815 11.6122 5.70003C11.754 5.6719 11.8843 5.60239 11.9865 5.50026C12.0888 5.39813 12.1585 5.26797 12.1868 5.12624C12.2151 4.9845 12.2008 4.83755 12.1456 4.70396C12.0905 4.57037 11.9969 4.45613 11.8768 4.37569C11.7568 4.29524 11.6155 4.2522 11.471 4.252V4.252C11.2772 4.25226 11.0914 4.32935 10.9544 4.46638C10.8173 4.60342 10.7403 4.78919 10.74 4.98299H10.739ZM5.75598 13.196C5.36939 13.1915 4.98648 13.1204 4.62399 12.986C4.36114 12.8847 4.12239 12.7296 3.92313 12.5305C3.72386 12.3314 3.56847 12.0928 3.46698 11.83C3.33249 11.4675 3.26146 11.0846 3.25699 10.698C3.22699 10.056 3.22198 9.86301 3.22198 8.23601C3.22198 6.60901 3.22799 6.416 3.25699 5.774C3.26189 5.38745 3.33291 5.0046 3.46698 4.64201C3.5683 4.37903 3.72363 4.14018 3.92291 3.9409C4.12219 3.74162 4.36101 3.58632 4.62399 3.485C4.98646 3.35049 5.36939 3.27946 5.75598 3.27501C6.39798 3.24501 6.59099 3.24001 8.21799 3.24001C9.84499 3.24001 10.038 3.24602 10.681 3.27602C11.0675 3.281 11.4504 3.35201 11.813 3.48601C12.076 3.58733 12.3148 3.74263 12.5141 3.94191C12.7134 4.14119 12.8687 4.38001 12.97 4.64299C13.1046 5.00545 13.1756 5.38841 13.18 5.77501C13.21 6.41801 13.215 6.61001 13.215 8.23701C13.215 9.86401 13.209 10.057 13.18 10.699C13.1752 11.0856 13.1042 11.4685 12.97 11.831C12.8685 12.0938 12.7131 12.3324 12.5139 12.5315C12.3146 12.7306 12.0758 12.8858 11.813 12.987C11.4505 13.1215 11.0676 13.1926 10.681 13.197C10.039 13.227 9.84599 13.232 8.21799 13.232C6.58999 13.232 6.39798 13.226 5.75598 13.197V13.196ZM5.70599 2.18102C5.20054 2.19105 4.70044 2.28673 4.22699 2.464C3.82206 2.62045 3.45429 2.85977 3.14725 3.16664C2.8402 3.47351 2.60067 3.84114 2.444 4.24599C2.26671 4.71944 2.171 5.21953 2.16098 5.72499C2.13098 6.37499 2.12399 6.58201 2.12399 8.23701C2.12399 9.89201 2.13098 10.099 2.16098 10.749C2.171 11.2545 2.26671 11.7546 2.444 12.228C2.60067 12.6329 2.8402 13.0005 3.14725 13.3074C3.45429 13.6142 3.82206 13.8535 4.22699 14.01C4.70045 14.1872 5.20054 14.2829 5.70599 14.293C6.35599 14.323 6.56399 14.33 8.21899 14.33C9.87399 14.33 10.082 14.323 10.732 14.293C11.2375 14.283 11.7375 14.1873 12.211 14.01C12.6157 13.8534 12.9833 13.6141 13.2902 13.3072C13.5971 13.0003 13.8364 12.6328 13.993 12.228C14.1706 11.7546 14.2663 11.2545 14.276 10.749C14.306 10.099 14.312 9.89201 14.312 8.23701C14.312 6.58201 14.305 6.37499 14.276 5.72499C14.2661 5.21953 14.1703 4.71942 13.993 4.24599C13.8364 3.84127 13.597 3.47374 13.2901 3.16689C12.9833 2.86003 12.6157 2.62062 12.211 2.464C11.7376 2.2866 11.2375 2.19092 10.732 2.18102C10.082 2.15102 9.874 2.144 8.22 2.144C6.566 2.144 6.357 2.15102 5.707 2.18102" fill="#282E3A"/>
</g>
<defs>
<clipPath id="clip0">
<rect width="16.404" height="16.402" fill="white"/>
</clipPath>
</defs>
</svg>
