<svg xmlns="http://www.w3.org/2000/svg" width="16.404" height="16.402" viewBox="0 0 16.404 16.402"><defs><style>.a{fill:#282e3a;}.b{fill:#f8f8f8;}</style></defs><path class="a" d="M4.16,16.344A5.523,5.523,0,0,1,2.3,16a3.109,3.109,0,0,1-1.151-.748A3.084,3.084,0,0,1,.4,14.1a5.522,5.522,0,0,1-.344-1.858C.01,11.19,0,10.873,0,8.2S.011,5.215.058,4.159A5.553,5.553,0,0,1,.4,2.3,3.12,3.12,0,0,1,1.151,1.15,3.089,3.089,0,0,1,2.3.4,5.523,5.523,0,0,1,4.159.058C5.214.01,5.531,0,8.2,0s2.988.011,4.043.058A5.555,5.555,0,0,1,14.1.4a3.1,3.1,0,0,1,1.151.748A3.1,3.1,0,0,1,16,2.3a5.522,5.522,0,0,1,.344,1.858c.048,1.055.058,1.371.058,4.043s-.01,2.987-.058,4.043A5.547,5.547,0,0,1,16,14.1,3.313,3.313,0,0,1,14.1,16a5.523,5.523,0,0,1-1.858.344c-1.055.048-1.371.058-4.043.058s-2.988-.009-4.042-.058" transform="translate(0)"/><path class="a" d="M4.16,16.344A5.523,5.523,0,0,1,2.3,16a3.109,3.109,0,0,1-1.151-.748A3.084,3.084,0,0,1,.4,14.1a5.522,5.522,0,0,1-.344-1.858C.01,11.19,0,10.873,0,8.2S.011,5.215.058,4.159A5.553,5.553,0,0,1,.4,2.3,3.12,3.12,0,0,1,1.151,1.15,3.089,3.089,0,0,1,2.3.4,5.523,5.523,0,0,1,4.159.058C5.214.01,5.531,0,8.2,0s2.988.011,4.043.058A5.555,5.555,0,0,1,14.1.4a3.1,3.1,0,0,1,1.151.748A3.1,3.1,0,0,1,16,2.3a5.522,5.522,0,0,1,.344,1.858c.048,1.055.058,1.371.058,4.043s-.01,2.987-.058,4.043A5.547,5.547,0,0,1,16,14.1,3.313,3.313,0,0,1,14.1,16a5.523,5.523,0,0,1-1.858.344c-1.055.048-1.371.058-4.043.058s-2.988-.009-4.042-.058" transform="translate(0)"/><path class="b" d="M439.913,445.613a2.031,2.031,0,1,1,2.031,2.031,2.031,2.031,0,0,1-2.031-2.031m-1.1,0a3.129,3.129,0,1,0,3.129-3.129,3.129,3.129,0,0,0-3.129,3.129m5.651-3.253a.731.731,0,1,0,.732-.731h0a.732.732,0,0,0-.731.731m-4.984,8.213a3.369,3.369,0,0,1-1.132-.21,2.018,2.018,0,0,1-1.157-1.156,3.366,3.366,0,0,1-.21-1.132c-.03-.642-.035-.835-.035-2.462s.006-1.82.035-2.462a3.388,3.388,0,0,1,.21-1.132,2.017,2.017,0,0,1,1.157-1.157,3.365,3.365,0,0,1,1.132-.21c.642-.03.835-.035,2.462-.035s1.82.006,2.463.036a3.392,3.392,0,0,1,1.132.21,2.017,2.017,0,0,1,1.157,1.157,3.363,3.363,0,0,1,.21,1.132c.03.643.035.835.035,2.462s-.006,1.82-.035,2.462a3.38,3.38,0,0,1-.21,1.132,2.018,2.018,0,0,1-1.157,1.156,3.365,3.365,0,0,1-1.132.21c-.642.03-.835.035-2.463.035s-1.82-.006-2.462-.035m-.05-11.016a4.471,4.471,0,0,0-1.479.283,3.116,3.116,0,0,0-1.783,1.782,4.47,4.47,0,0,0-.283,1.479c-.03.65-.037.857-.037,2.512s.007,1.862.037,2.512a4.47,4.47,0,0,0,.283,1.479,3.116,3.116,0,0,0,1.783,1.782,4.473,4.473,0,0,0,1.479.283c.65.03.858.037,2.513.037s1.863-.007,2.513-.037a4.47,4.47,0,0,0,1.479-.283,3.116,3.116,0,0,0,1.782-1.782,4.455,4.455,0,0,0,.283-1.479c.03-.65.036-.857.036-2.512s-.007-1.862-.036-2.512a4.466,4.466,0,0,0-.283-1.479,3.117,3.117,0,0,0-1.782-1.782,4.464,4.464,0,0,0-1.479-.283c-.65-.03-.858-.037-2.512-.037s-1.863.007-2.513.037" transform="translate(-433.725 -437.377)"/></svg>