<svg width="30" height="27" viewBox="0 0 30 27" fill="none" xmlns="http://www.w3.org/2000/svg">
<g clip-path="url(#clip0)">
<path d="M27.188 13.125H22.5V9.375C22.5008 8.38068 22.8961 7.42731 23.5992 6.72422C24.3023 6.02114 25.2557 5.62579 26.25 5.625H26.719C26.9039 5.62579 27.087 5.58997 27.258 5.51959C27.4289 5.44921 27.5842 5.34568 27.715 5.21496C27.8457 5.08424 27.9492 4.92893 28.0196 4.75799C28.09 4.58705 28.1258 4.40386 28.125 4.219V1.406C28.1258 1.22114 28.09 1.03795 28.0196 0.867007C27.9492 0.696065 27.8457 0.540753 27.715 0.410035C27.5842 0.279318 27.4289 0.175783 27.258 0.105406C27.087 0.0350289 26.9039 -0.000796318 26.719 -2.34504e-06H26.25C25.0187 -0.000396535 23.7995 0.241826 22.6619 0.712824C21.5243 1.18382 20.4906 1.87436 19.62 2.74499C18.7494 3.61562 18.0588 4.64927 17.5878 5.78687C17.1168 6.92448 16.8746 8.14374 16.875 9.375V23.438C16.8753 24.1839 17.1718 24.8991 17.6993 25.4264C18.2268 25.9538 18.9421 26.25 19.688 26.25H27.188C27.9337 26.2497 28.6488 25.9534 29.1761 25.4261C29.7034 24.8988 29.9997 24.1837 30 23.438V15.938C30 15.1921 29.7038 14.4768 29.1764 13.9493C28.6491 13.4217 27.9339 13.1253 27.188 13.125V13.125ZM10.313 13.125H5.625V9.375C5.62579 8.38068 6.02114 7.42731 6.72423 6.72422C7.42732 6.02114 8.38068 5.62579 9.375 5.625H9.844C10.0289 5.62579 10.212 5.58997 10.383 5.51959C10.5539 5.44921 10.7092 5.34568 10.84 5.21496C10.9707 5.08424 11.0742 4.92893 11.1446 4.75799C11.215 4.58705 11.2508 4.40386 11.25 4.219V1.406C11.2508 1.22114 11.215 1.03795 11.1446 0.867007C11.0742 0.696065 10.9707 0.540753 10.84 0.410035C10.7092 0.279318 10.5539 0.175783 10.383 0.105406C10.212 0.0350289 10.0289 -0.000796318 9.844 -2.34504e-06H9.375C8.14375 -0.000396535 6.92448 0.241826 5.78688 0.712824C4.64927 1.18382 3.61562 1.87436 2.745 2.74499C1.87437 3.61562 1.18383 4.64927 0.712827 5.78687C0.241829 6.92448 -0.00039371 8.14374 4.80352e-07 9.375V23.438C0.000265635 24.1839 0.296751 24.8991 0.824263 25.4264C1.35177 25.9538 2.06712 26.25 2.813 26.25H10.313C11.0589 26.25 11.7742 25.9538 12.3017 25.4264C12.8292 24.8991 13.1257 24.1839 13.126 23.438V15.938C13.126 15.1919 12.8296 14.4764 12.3021 13.9489C11.7746 13.4214 11.0591 13.125 10.313 13.125V13.125Z" fill="#F8F8F8"/>
</g>
<defs>
<clipPath id="clip0">
<rect width="30" height="26.25" fill="white"/>
</clipPath>
</defs>
</svg>
