<svg xmlns="http://www.w3.org/2000/svg" width="30" height="26.25" viewBox="0 0 30 26.25"><defs><style>.a{fill:#282e3a;}</style></defs><path class="a" d="M27.188,15.375H22.5v-3.75a3.753,3.753,0,0,1,3.75-3.75h.469a1.4,1.4,0,0,0,1.406-1.406V3.656A1.4,1.4,0,0,0,26.719,2.25H26.25a9.372,9.372,0,0,0-9.375,9.375V25.688A2.813,2.813,0,0,0,19.688,28.5h7.5A2.813,2.813,0,0,0,30,25.688v-7.5A2.813,2.813,0,0,0,27.188,15.375Zm-16.875,0H5.625v-3.75a3.753,3.753,0,0,1,3.75-3.75h.469A1.4,1.4,0,0,0,11.25,6.469V3.656A1.4,1.4,0,0,0,9.844,2.25H9.375A9.372,9.372,0,0,0,0,11.625V25.688A2.813,2.813,0,0,0,2.813,28.5h7.5a2.813,2.813,0,0,0,2.813-2.812v-7.5A2.813,2.813,0,0,0,10.313,15.375Z" transform="translate(0 -2.25)"/></svg>