<svg xmlns="http://www.w3.org/2000/svg" width="20.19" height="16.402" viewBox="0 0 20.19 16.402"><defs><style>.a{fill:#fff;}</style></defs><path class="a" d="M20.19,49.942A8.631,8.631,0,0,1,17.8,50.6a4.115,4.115,0,0,0,1.821-2.287,8.272,8.272,0,0,1-2.625,1,4.139,4.139,0,0,0-7.16,2.83,4.261,4.261,0,0,0,.1.944,11.716,11.716,0,0,1-8.532-4.329,4.139,4.139,0,0,0,1.272,5.531,4.088,4.088,0,0,1-1.87-.51v.045a4.158,4.158,0,0,0,3.316,4.067,4.131,4.131,0,0,1-1.085.136,3.66,3.66,0,0,1-.784-.071,4.178,4.178,0,0,0,3.868,2.883A8.317,8.317,0,0,1,.991,62.6,7.753,7.753,0,0,1,0,62.545,11.654,11.654,0,0,0,6.35,64.4,11.7,11.7,0,0,0,18.131,52.625c0-.183-.006-.36-.015-.535A8.257,8.257,0,0,0,20.19,49.942Z" transform="translate(0 -48)"/></svg>